<svg version="1.2" xmlns="http://www.w3.org/2000/svg" viewBox="0 0 1024 1024" width="1024" height="1024">
	<style>
		.s0 { fill: #ffffff } 
	</style>
	<g id="Layer 1">
		<g id="Background">
			<path id="Path 1" fill-rule="evenodd" class="s0" d="m418 350.01c-4.68 0.44-11.43 1.31-15 1.94-3.57 0.63-11 2.52-16.5 4.2-5.5 1.69-14.05 4.95-19 7.26-4.95 2.31-11.93 6.17-15.5 8.57-3.57 2.4-9.83 7.1-13.9 10.44-4.08 3.35-11.01 10.13-15.41 15.08-4.4 4.95-10.83 13.27-14.28 18.5-3.45 5.23-8.27 13.77-10.7 19-2.44 5.23-5.81 13.55-7.5 18.5-1.69 4.95-3.96 12.6-5.06 17-1.09 4.4-2.46 11.15-3.04 15-0.58 3.85-1.34 11.95-1.71 18-0.38 6.4-0.16 16.23 0.53 23.5 0.65 6.88 2.04 16.77 3.09 22 1.04 5.23 3.51 14.23 5.48 20 1.96 5.77 6.48 16.35 10.03 23.5 3.55 7.15 9.38 17.05 12.95 22 3.57 4.95 8.86 11.68 11.76 14.95 2.89 3.27 8.63 8.82 12.76 12.34 4.13 3.52 11.32 8.91 16 11.99 4.68 3.08 12.1 7.26 16.5 9.29 4.4 2.04 11.82 4.85 16.5 6.27 4.68 1.41 12.55 3.37 17.5 4.36 8.3 1.66 16.72 1.8 108.5 1.8 92.16 0 100.13-0.13 108-1.81 4.67-0.99 11.65-2.72 15.5-3.84 3.85-1.12 12.4-4.63 19-7.8 6.6-3.17 16.05-8.64 21-12.16 4.95-3.51 13.5-10.92 19-16.46 5.5-5.54 13.01-14.31 16.69-19.5 3.68-5.19 8.47-12.8 10.64-16.93 2.18-4.12 4.23-8.51 4.56-9.75l0.61-2.25h-55c-4.19 7.36-7.18 11.98-9.35 15-2.17 3.02-9.39 10.93-16.05 17.57-6.65 6.64-15.48 14.34-19.6 17.11-4.12 2.78-10.65 6.62-14.5 8.55-3.85 1.93-10.6 4.71-15 6.18-4.4 1.47-13.17 3.6-19.5 4.73-10.74 1.93-15.28 2.07-68.5 2.06-53.46-0.01-57.62-0.14-67-2.06-5.5-1.12-13.38-3.24-17.5-4.72-4.12-1.47-10.65-4.25-14.5-6.17-3.85-1.93-11.05-6.26-15.99-9.63-4.94-3.37-13.49-10.63-19-16.15-5.51-5.52-12.87-14.07-16.37-19-3.49-4.93-8.97-14.37-12.16-20.97-3.2-6.6-6.93-15.6-8.31-20-1.37-4.4-3.31-12.05-4.3-17-1.36-6.74-1.81-13.64-1.81-27.5 0-13.82 0.45-20.77 1.8-27.5 0.99-4.95 3.16-13.27 4.81-18.5 1.66-5.23 5.41-14.45 8.33-20.5 2.92-6.05 8.64-15.5 12.72-21 4.07-5.5 10.98-13.54 15.35-17.87 4.36-4.32 11.75-10.74 16.43-14.27 4.68-3.52 12.77-8.6 18-11.29 5.23-2.69 13.1-6.04 17.5-7.45 4.4-1.41 12.05-3.26 17-4.1 7.39-1.27 19.27-1.54 66.5-1.53 46.2 0.02 59.32 0.31 66.75 1.51 5.09 0.83 12.96 2.68 17.5 4.12 4.54 1.44 11.85 4.41 16.25 6.61 4.4 2.19 11.83 6.52 16.5 9.61 4.67 3.09 12.05 9 16.4 13.14 4.34 4.14 10.98 11.34 14.74 16.02 3.76 4.68 8.31 11.07 10.1 14.22l3.26 5.72c44.77 0.05 54.5-0.3 54.5-0.94 0-0.55-2.36-5.61-5.24-11.25-2.88-5.64-7.67-13.62-10.64-17.75-2.98-4.12-7.48-9.9-10.02-12.83-2.53-2.93-8.43-8.6-13.1-12.61-4.67-4-11.87-9.45-16-12.11-4.12-2.66-12-6.98-17.5-9.59-5.5-2.61-14.05-5.92-19-7.34-4.95-1.43-13.05-3.34-18-4.24-7.87-1.44-20.47-1.67-100-1.85-50.05-0.12-94.82 0.15-99.5 0.58zm223.5 110.21c-2.2 1.18-11.65 5.7-21 10.05-9.35 4.35-23.08 10.61-30.5 13.92-7.42 3.3-20.48 8.82-29 12.25-8.52 3.44-22.7 8.84-31.5 12-8.8 3.17-20.4 7.4-25.78 9.41-5.38 2.01-9.75 4.1-9.72 4.65 0.03 0.55 1.95 3.08 4.28 5.62 2.32 2.55 6.92 6.79 10.22 9.43 3.3 2.64 9.6 6.49 14 8.55 4.4 2.06 11.83 4.52 16.5 5.46 6.08 1.22 10.78 1.53 16.5 1.09 4.4-0.35 10.7-1.32 14-2.16 3.3-0.85 9.6-3.27 14-5.37 4.4-2.11 10.7-5.87 14-8.36 3.3-2.49 8.93-7.62 12.51-11.39 3.59-3.78 9.83-11.82 13.88-17.87 4.04-6.05 9.05-14.37 11.11-18.5 2.07-4.12 5.84-12.56 8.38-18.75 2.54-6.19 4.62-11.48 4.62-11.75 0-0.27-0.56-0.48-1.25-0.46-0.69 0.03-3.05 1.01-5.25 2.18zm62.16 10.99c-0.4 1.81-2.29 6.55-4.2 10.54-2.34 4.91-5.47 9.27-9.71 13.51-3.44 3.45-8.27 7.44-10.75 8.88-2.48 1.43-7.31 3.68-10.74 4.98-3.44 1.31-6.14 2.49-6 2.62 0.13 0.13 3.84 1.83 8.24 3.78 4.4 1.95 10.44 5.44 13.42 7.76 2.98 2.32 7.22 6.47 9.41 9.22 2.19 2.75 5.9 9.05 8.24 14 3.39 7.16 4.4 8.59 4.96 7 0.39-1.1 1.93-4.7 3.44-8 1.51-3.3 4.79-8.7 7.3-12 2.51-3.3 6.73-7.65 9.39-9.67 2.66-2.01 7.09-4.79 9.84-6.17 2.75-1.38 6.91-3.1 9.25-3.83 2.34-0.73 4.25-1.67 4.25-2.08 0-0.41-1.69-1.25-3.75-1.86-2.06-0.61-7.12-2.89-11.25-5.07-4.12-2.18-9.23-5.62-11.35-7.64-2.11-2.03-5.54-6.16-7.62-9.18-2.08-3.02-5.07-8.6-6.65-12.4-1.58-3.79-3.36-7.07-3.94-7.29-0.58-0.21-1.38 1.09-1.78 2.9zm-339.12 17.44c-0.48 0.37-0.8 2.97-0.72 5.77 0.09 2.79 1.08 8.68 2.21 13.08 1.14 4.4 3.28 10.23 4.77 12.95 1.48 2.72 5.01 7.44 7.84 10.5 2.94 3.18 7.64 6.83 11 8.55 5.08 2.6 6.92 3 13.86 2.98 6.63-0.02 8.85-0.46 13-2.61 2.75-1.43 6.96-4.79 9.35-7.48 2.4-2.69 5.18-6.47 6.18-8.39l1.82-3.5c-19.65-5.91-30.08-9.61-35.85-12.04-5.77-2.43-13.87-6.49-18-9.01-4.12-2.53-9.09-6.15-11.04-8.04-1.95-1.9-3.94-3.14-4.42-2.76z"/>
		</g>
	</g>
</svg>