<svg width="24" height="24" viewBox="0 0 24 24" fill="none" xmlns="http://www.w3.org/2000/svg">
<rect width="24" height="24" rx="4" fill="black"/>
<path fill-rule="evenodd" clip-rule="evenodd" d="M8.27928 6.0224C8.09997 6.03859 7.84134 6.0706 7.70455 6.09379C7.56777 6.11697 7.28308 6.18652 7.07235 6.24834C6.86161 6.31053 6.53402 6.43049 6.34436 6.5155C6.15469 6.6005 5.88725 6.74255 5.75047 6.83086C5.61368 6.91918 5.37383 7.09213 5.21788 7.21504C5.06156 7.33832 4.79603 7.58781 4.62744 7.76997C4.45885 7.95212 4.21249 8.25828 4.0803 8.45074C3.94811 8.6432 3.76343 8.95746 3.67032 9.14992C3.57683 9.34237 3.44771 9.64854 3.38296 9.83069C3.3182 10.0128 3.23123 10.2944 3.18908 10.4563C3.14732 10.6182 3.09482 10.8666 3.0726 11.0082C3.05038 11.1499 3.02126 11.448 3.00708 11.6706C2.99252 11.9061 3.00095 12.2679 3.02739 12.5354C3.05229 12.7886 3.10555 13.1525 3.14578 13.345C3.18563 13.5374 3.28027 13.8686 3.35575 14.0809C3.43085 14.2933 3.60404 14.6826 3.74006 14.9457C3.87608 15.2088 4.09946 15.5731 4.23624 15.7553C4.37303 15.9374 4.57572 16.1851 4.68683 16.3054C4.79756 16.4258 5.01749 16.63 5.17574 16.7595C5.33398 16.889 5.60947 17.0874 5.78878 17.2007C5.9681 17.3141 6.2524 17.4679 6.42099 17.5426C6.58957 17.6177 6.87387 17.7211 7.05319 17.7733C7.23251 17.8252 7.53405 17.8973 7.72371 17.9338C8.04173 17.9948 8.36434 18 11.8809 18C15.4121 18 15.7175 17.9952 16.019 17.9334C16.1979 17.897 16.4654 17.8333 16.6129 17.7921C16.7604 17.7509 17.088 17.6217 17.3409 17.5051C17.5938 17.3884 17.9558 17.1871 18.1455 17.0576C18.3352 16.9284 18.6628 16.6557 18.8735 16.4519C19.0842 16.248 19.372 15.9253 19.513 15.7343C19.654 15.5433 19.8375 15.2633 19.9207 15.1113C20.0042 14.9597 20.0827 14.7981 20.0954 14.7525L20.1187 14.6697L18.0114 14.6697C17.8509 14.9406 17.7363 15.1106 17.6531 15.2217C17.57 15.3328 17.2934 15.6239 17.0382 15.8683C16.7834 16.1126 16.4451 16.3959 16.2872 16.4979C16.1293 16.6002 15.8791 16.7415 15.7316 16.8125C15.5841 16.8835 15.3255 16.9858 15.1569 17.0399C14.9883 17.094 14.6523 17.1724 14.4097 17.214C13.9982 17.285 13.8243 17.2902 11.7851 17.2898C9.7368 17.2894 9.57741 17.2846 9.21801 17.214C9.00728 17.1728 8.70535 17.0948 8.54749 17.0403C8.38963 16.9862 8.13943 16.8839 7.99192 16.8132C7.8444 16.7422 7.56853 16.5829 7.37926 16.4589C7.18998 16.3349 6.86238 16.0677 6.65126 15.8646C6.44014 15.6614 6.15814 15.3468 6.02404 15.1654C5.89032 14.984 5.68035 14.6366 5.55812 14.3937C5.43551 14.1509 5.2926 13.8197 5.23972 13.6578C5.18723 13.4958 5.1129 13.2143 5.07497 13.0322C5.02286 12.7842 5.00561 12.5302 5.00561 12.0202C5.00561 11.5117 5.02286 11.2559 5.07458 11.0082C5.11251 10.8261 5.19566 10.5199 5.25888 10.3275C5.32248 10.135 5.46617 9.79573 5.57805 9.5731C5.68993 9.35047 5.90909 9.00272 6.06542 8.80033C6.22136 8.59794 6.48612 8.30207 6.65356 8.14274C6.82062 7.98377 7.10377 7.74752 7.28308 7.61762C7.4624 7.48809 7.77237 7.30115 7.97276 7.20216C8.17315 7.10317 8.47469 6.9799 8.64328 6.92801C8.81187 6.87612 9.10498 6.80805 9.29464 6.77714C9.57779 6.7304 10.033 6.72047 11.8426 6.72083C13.6128 6.72157 14.1155 6.73224 14.4002 6.7764C14.5952 6.80694 14.8967 6.87502 15.0707 6.92801C15.2446 6.981 15.5247 7.09029 15.6933 7.17125C15.8619 7.25184 16.1466 7.41118 16.3255 7.52489C16.5045 7.63859 16.7872 7.85607 16.9539 8.00842C17.1202 8.16077 17.3746 8.42572 17.5187 8.59794C17.6627 8.77015 17.8371 9.0053 17.9056 9.12121L18.0306 9.3317C19.7459 9.33354 20.1187 9.32066 20.1187 9.29711C20.1187 9.27687 20.0283 9.09067 19.918 8.88313C19.8076 8.67558 19.6241 8.38193 19.5103 8.22995C19.3961 8.07834 19.2237 7.86564 19.1264 7.75782C19.0294 7.65 18.8034 7.44135 18.6244 7.29379C18.4455 7.1466 18.1696 6.94604 18.0114 6.84816C17.8535 6.75027 17.5516 6.5913 17.3409 6.49526C17.1301 6.39921 16.8025 6.27741 16.6129 6.22516C16.4232 6.17253 16.1129 6.10225 15.9232 6.06913C15.6217 6.01614 15.1389 6.00768 12.0917 6.00105C10.174 5.99664 8.4586 6.00657 8.27928 6.0224ZM16.8428 10.078C16.7585 10.1214 16.3964 10.2877 16.0382 10.4478C15.6799 10.6079 15.1538 10.8382 14.8695 10.96C14.5852 11.0815 14.0848 11.2846 13.7584 11.4108C13.4319 11.5374 12.8886 11.7361 12.5515 11.8524C12.2143 11.9691 11.7698 12.1247 11.5637 12.1987C11.3575 12.2727 11.1901 12.3496 11.1913 12.3698C11.1924 12.39 11.266 12.4831 11.3552 12.5766C11.4441 12.6704 11.6204 12.8265 11.7468 12.9236C11.8733 13.0208 12.1147 13.1624 12.2832 13.2382C12.4518 13.3141 12.7365 13.4046 12.9154 13.4392C13.1484 13.4841 13.3285 13.4955 13.5477 13.4793C13.7162 13.4664 13.9576 13.4307 14.0841 13.3998C14.2105 13.3685 14.4519 13.2795 14.6205 13.2022C14.7891 13.1245 15.0305 12.9862 15.1569 12.8946C15.2833 12.8029 15.4991 12.6141 15.6362 12.4754C15.7738 12.3363 16.0129 12.0405 16.168 11.8178C16.3228 11.5952 16.5148 11.289 16.5937 11.137C16.673 10.9854 16.8175 10.6749 16.9148 10.4471C17.0121 10.2193 17.0918 10.0246 17.0918 10.0147C17.0918 10.0047 17.0704 9.99702 17.0439 9.99776C17.0175 9.99886 16.9271 10.0349 16.8428 10.078ZM19.2245 10.4824C19.2091 10.549 19.1367 10.7234 19.0635 10.8703C18.9739 11.0509 18.854 11.2114 18.6915 11.3674C18.5597 11.4944 18.3746 11.6412 18.2796 11.6942C18.1846 11.7468 17.9995 11.8296 17.8681 11.8774C17.7363 11.9256 17.6328 11.9691 17.6382 11.9738C17.6432 11.9786 17.7853 12.0412 17.9539 12.1129C18.1225 12.1847 18.3539 12.3131 18.4681 12.3985C18.5823 12.4839 18.7448 12.6366 18.8287 12.7378C18.9126 12.839 19.0547 13.0708 19.1444 13.253C19.2743 13.5164 19.313 13.5691 19.3344 13.5106C19.3494 13.4701 19.4084 13.3376 19.4662 13.2162C19.5241 13.0947 19.6498 12.896 19.7459 12.7746C19.8421 12.6532 20.0038 12.4931 20.1057 12.4187C20.2076 12.3448 20.3774 12.2425 20.4827 12.1917C20.5881 12.1409 20.7475 12.0776 20.8372 12.0508C20.9268 12.0239 21 11.9893 21 11.9742C21 11.9591 20.9352 11.9282 20.8563 11.9058C20.7774 11.8833 20.5835 11.7994 20.4253 11.7192C20.2674 11.639 20.0716 11.5124 19.9904 11.4381C19.9095 11.3634 19.7781 11.2114 19.6984 11.1002C19.6187 10.9891 19.5042 10.7838 19.4436 10.6439C19.3831 10.5045 19.3149 10.3838 19.2927 10.3757C19.2704 10.368 19.2398 10.4158 19.2245 10.4824ZM6.23094 11.1242C6.21255 11.1378 6.20029 11.2335 6.20336 11.3365C6.2068 11.4392 6.24474 11.6559 6.28803 11.8178C6.33171 11.9797 6.41371 12.1943 6.4708 12.2944C6.5275 12.3945 6.66276 12.5681 6.77119 12.6808C6.88384 12.7978 7.06392 12.9321 7.19266 12.9954C7.3873 13.0911 7.4578 13.1058 7.72371 13.105C7.97774 13.1043 8.0628 13.0881 8.22181 13.009C8.32718 12.9564 8.48849 12.8327 8.58006 12.7337C8.67202 12.6348 8.77853 12.4957 8.81685 12.425L8.88658 12.2962C8.13369 12.0787 7.73406 11.9426 7.51298 11.8531C7.2919 11.7637 6.98154 11.6143 6.8233 11.5216C6.66544 11.4285 6.47501 11.2953 6.4003 11.2257C6.32558 11.1558 6.24933 11.1102 6.23094 11.1242Z" fill="white"/>
</svg>
